<svg xmlns="http://www.w3.org/2000/svg" version="1.1" xmlns:xlink="http://www.w3.org/1999/xlink" xmlns:svgjs="http://svgjs.dev/svgjs" width="1440" height="560" preserveAspectRatio="none" viewBox="0 0 1440 560"><g mask="url(&quot;#SvgjsMask1005&quot;)" fill="none"><rect width="1440" height="560" x="0" y="0" fill="rgba(73, 121, 247, 1)"></rect><path d="M1464 560L0 560 L0 324.79Q54.75 259.55, 120 314.3Q149.7 272, 192 301.71Q241.06 278.76, 264 327.82Q343.19 287.01, 384 366.21Q413.5 275.7, 504 305.2Q557.21 238.41, 624 291.62Q688.16 283.78, 696 347.95Q718.99 298.94, 768 321.92Q793.44 275.36, 840 300.8Q889.84 230.64, 960 280.48Q1055.56 256.04, 1080 351.6Q1125.84 277.44, 1200 323.27Q1280.4 283.67, 1320 364.08Q1323.49 295.56, 1392 299.05Q1421.97 257.02, 1464 287z" fill="rgba(59, 115, 227, 1)"></path><path d="M1512 560L0 560 L0 431.87Q39.84 351.71, 120 391.55Q165.63 317.19, 240 362.82Q341.37 344.19, 360 445.55Q410.58 376.13, 480 426.71Q529.54 356.25, 600 405.79Q634.31 320.11, 720 354.42Q768.78 331.2, 792 379.98Q846.4 314.38, 912 368.78Q982.06 366.83, 984 436.89Q992.44 373.33, 1056 381.77Q1108.67 314.44, 1176 367.11Q1232.76 351.87, 1248 408.63Q1299.2 339.84, 1368 391.04Q1419.93 370.97, 1440 422.9Q1450.66 361.56, 1512 372.23z" fill="rgba(63, 120, 215, 1)"></path><path d="M1488 560L0 560 L0 506.61Q5.42 440.03, 72 445.46Q98.66 400.12, 144 426.78Q195.23 406, 216 457.23Q266.4 387.63, 336 438.04Q415.84 397.88, 456 477.73Q497.08 446.81, 528 487.89Q531.26 419.15, 600 422.41Q654.09 404.5, 672 458.59Q741.49 408.07, 792 477.56Q871.1 436.65, 912 515.75Q934.47 466.22, 984 488.69Q1032.14 416.83, 1104 464.97Q1142.98 383.95, 1224 422.93Q1269.91 396.85, 1296 442.76Q1384.88 411.64, 1416 500.52Q1435.93 448.45, 1488 468.38z" fill="#356cb1"></path><path d="M1512 560L0 560 L0 582.95Q43.09 506.04, 120 549.13Q143 500.13, 192 523.12Q217.27 476.39, 264 501.66Q355.53 473.19, 384 564.72Q437.64 498.37, 504 552.01Q542.07 470.08, 624 508.14Q675.5 439.64, 744 491.14Q830.25 457.39, 864 543.65Q880.96 488.61, 936 505.57Q1002.98 452.55, 1056 519.53Q1100.49 492.01, 1128 536.5Q1145.36 481.86, 1200 499.22Q1244.2 471.42, 1272 515.62Q1359.31 482.93, 1392 570.24Q1459.94 518.18, 1512 586.13z" fill="white"></path></g><defs><mask id="SvgjsMask1005"><rect width="1440" height="560" fill="#ffffff"></rect></mask></defs></svg>